<svg width="35" height="34" viewBox="0 0 35 34" fill="none" xmlns="http://www.w3.org/2000/svg">
<path d="M28.4375 4.25H24.0625V2.125H21.875V4.25H13.125V2.125H10.9375V4.25H6.5625C5.35937 4.25 4.375 5.20625 4.375 6.375V27.625C4.375 28.7938 5.35937 29.75 6.5625 29.75H28.4375C29.6406 29.75 30.625 28.7938 30.625 27.625V6.375C30.625 5.20625 29.6406 4.25 28.4375 4.25ZM28.4375 27.625H6.5625V12.75H28.4375V27.625ZM28.4375 10.625H6.5625V6.375H10.9375V8.5H13.125V6.375H21.875V8.5H24.0625V6.375H28.4375V10.625Z" fill="black"/>
<path d="M22.9688 20.9464H18.2812V25.5H16.7188V20.9464H12.0312V19.4286H16.7188V14.875H18.2812V19.4286H22.9688V20.9464Z" fill="black"/>
</svg>
