<svg width="99" height="125" viewBox="0 0 99 125" fill="none" xmlns="http://www.w3.org/2000/svg">
<mask id="path-1-inside-1_30_193" fill="white">
<path d="M83.3684 93.75H10.4211V36.4583H83.3684M67.7368 0V10.4167H26.0526V0H15.6316V10.4167H10.4211C4.63737 10.4167 0 15.0521 0 20.8333V93.75C0 96.5127 1.09793 99.1622 3.05226 101.116C5.00658 103.069 7.65722 104.167 10.4211 104.167H83.3684C86.1323 104.167 88.7829 103.069 90.7372 101.116C92.6915 99.1622 93.7895 96.5127 93.7895 93.75V20.8333C93.7895 18.0707 92.6915 15.4211 90.7372 13.4676C88.7829 11.5141 86.1323 10.4167 83.3684 10.4167H78.1579V0"/>
</mask>
<path d="M83.3684 93.75H10.4211V36.4583H83.3684M67.7368 0V10.4167H26.0526V0H15.6316V10.4167H10.4211C4.63737 10.4167 0 15.0521 0 20.8333V93.75C0 96.5127 1.09793 99.1622 3.05226 101.116C5.00658 103.069 7.65722 104.167 10.4211 104.167H83.3684C86.1323 104.167 88.7829 103.069 90.7372 101.116C92.6915 99.1622 93.7895 96.5127 93.7895 93.75V20.8333C93.7895 18.0707 92.6915 15.4211 90.7372 13.4676C88.7829 11.5141 86.1323 10.4167 83.3684 10.4167H78.1579V0" fill="#015B97"/>
<path d="M10.4211 93.75H9.42105V94.75H10.4211V93.75ZM10.4211 36.4583V35.4583H9.42105V36.4583H10.4211ZM67.7368 10.4167V11.4167H68.7368V10.4167H67.7368ZM26.0526 10.4167H25.0526V11.4167H26.0526V10.4167ZM26.0526 0H27.0526V-1H26.0526V0ZM15.6316 0V-1H14.6316V0H15.6316ZM15.6316 10.4167V11.4167H16.6316V10.4167H15.6316ZM0 93.75H-1H0ZM78.1579 10.4167H77.1579V11.4167H78.1579V10.4167ZM83.3684 92.75H10.4211V94.75H83.3684V92.75ZM11.4211 93.75V36.4583H9.42105V93.75H11.4211ZM10.4211 37.4583H83.3684V35.4583H10.4211V37.4583ZM66.7368 0V10.4167H68.7368V0H66.7368ZM67.7368 9.41667H26.0526V11.4167H67.7368V9.41667ZM27.0526 10.4167V0H25.0526V10.4167H27.0526ZM26.0526 -1H15.6316V1H26.0526V-1ZM14.6316 0V10.4167H16.6316V0H14.6316ZM15.6316 9.41667H10.4211V11.4167H15.6316V9.41667ZM10.4211 9.41667C4.08548 9.41667 -1 14.4994 -1 20.8333H1C1 15.6048 5.18926 11.4167 10.4211 11.4167V9.41667ZM-1 20.8333V93.75H1V20.8333H-1ZM-1 93.75C-1 96.778 0.203388 99.6819 2.3453 101.823L3.75921 100.408C1.99247 98.6424 1 96.2473 1 93.75H-1ZM2.3453 101.823C4.48719 103.964 7.39214 105.167 10.4211 105.167V103.167C7.9223 103.167 5.52597 102.174 3.75921 100.408L2.3453 101.823ZM10.4211 105.167H83.3684V103.167H10.4211V105.167ZM83.3684 105.167C86.3973 105.167 89.3023 103.964 91.4442 101.823L90.0303 100.408C88.2635 102.174 85.8672 103.167 83.3684 103.167V105.167ZM91.4442 101.823C93.5861 99.6819 94.7895 96.778 94.7895 93.75H92.7895C92.7895 96.2473 91.797 98.6424 90.0303 100.408L91.4442 101.823ZM94.7895 93.75V20.8333H92.7895V93.75H94.7895ZM94.7895 20.8333C94.7895 17.8053 93.5861 14.9014 91.4442 12.7604L90.0303 14.1749C91.797 15.9409 92.7895 18.336 92.7895 20.8333H94.7895ZM91.4442 12.7604C89.3023 10.6194 86.3973 9.41667 83.3684 9.41667V11.4167C85.8672 11.4167 88.2635 12.4089 90.0303 14.1749L91.4442 12.7604ZM83.3684 9.41667H78.1579V11.4167H83.3684V9.41667ZM79.1579 10.4167V0H77.1579V10.4167H79.1579Z" fill="#015B97" mask="url(#path-1-inside-1_30_193)"/>
<rect x="36.4737" y="62.5" width="62.5263" height="62.5" rx="31.25" fill="white"/>
<path d="M57.8158 105.339V99.4584H62.0263V114.083H47.3947V109.875H54.0592H55.3903L54.3884 108.999L53.3588 108.098C51.2801 106.018 49.7724 103.767 48.8244 101.346C47.8687 98.9063 47.393 96.4186 47.3947 93.8806V93.8803C47.3947 89.1708 48.8037 84.992 51.6236 81.3258C54.3125 77.8299 57.7752 75.465 62.0263 74.2247V78.6891C58.9558 79.8668 56.4643 81.8093 54.5623 84.509C52.5919 87.3058 51.6052 90.4343 51.6052 93.8803C51.6052 95.8982 51.9869 97.8604 52.7482 99.7639C53.5142 101.679 54.7053 103.438 56.311 105.041C56.311 105.041 56.3111 105.041 56.3112 105.041L56.9623 105.692L57.8158 106.545V105.339ZM77.6579 82.1615V88.0417H73.4474V73.4167H88.0789V77.6251H81.4145H80.0833L81.0853 78.5014L82.1148 79.4019C84.1936 81.4826 85.7012 83.7334 86.6492 86.1538C87.605 88.5939 88.0806 91.0815 88.0789 93.6195V93.6199C88.0789 98.3293 86.67 102.508 83.8501 106.174C81.1612 109.67 77.6984 112.035 73.4474 113.275V108.811C76.5179 107.633 79.0094 105.691 80.9114 102.991C82.8818 100.194 83.8684 97.0658 83.8684 93.6199C83.8684 91.602 83.4868 89.6406 82.7253 87.7387C81.9594 85.8254 80.7684 84.0658 79.1629 82.4591L79.1627 82.459L78.5114 81.8079L77.6579 80.9548V82.1615Z" fill="#015B97" stroke="#015B97"/>
</svg>
